<svg id="visual" viewBox="0 0 900 600" width="900" height="600" xmlns="http://www.w3.org/2000/svg" xmlns:xlink="http://www.w3.org/1999/xlink" version="1.1"><g transform="translate(504.99901478872755 307.5662844822391)"><path d="M144.9 -214C182.5 -172.2 204 -122.7 216.1 -73.1C228.3 -23.5 231.1 26.3 224.7 81.4C218.3 136.4 202.6 196.9 163.6 237.8C124.6 278.8 62.3 300.4 22 270.2C-18.4 240 -36.7 157.9 -92.2 122.3C-147.7 86.6 -240.3 97.4 -290.5 65.4C-340.8 33.5 -348.7 -41.2 -325.8 -104C-302.8 -166.8 -249 -217.7 -189.5 -252.4C-130.1 -287.1 -65 -305.5 -5.7 -297.7C53.7 -289.9 107.4 -255.8 144.9 -214" fill="#c14d7b"></path></g></svg>